<svg width="120" height="120" viewBox="0 0 120 120" fill="none" xmlns="http://www.w3.org/2000/svg">
<path fill-rule="evenodd" clip-rule="evenodd" d="M46.2667 1.84163C18.5485 9.35307 0 33.0274 0 60.8923C0 84.4661 13.3149 105.28 35.1068 115.774C43.4217 119.777 44.7368 120 60.0866 120C75.4769 120 76.7421 119.784 85.3095 115.699C108.283 104.748 121.158 82.8111 119.918 56.7316C119.427 46.383 118.701 43.5024 114.359 34.6607C101.641 8.76471 72.5158 -5.27303 46.2667 1.84163ZM49.0496 5.2427C32.6209 8.51061 16.5974 21.4042 9.0589 37.4204C5.03377 45.97 4.72727 47.6399 4.73672 60.8923C4.74752 74.2561 5.02972 75.7412 9.19797 84.3411C22.999 112.808 56.981 125.017 84.8328 111.512C95.0975 106.533 106.063 95.1408 111.257 84.0557C115.089 75.8771 115.426 74.0033 115.436 60.8216C115.447 46.9714 115.274 46.1317 110.362 36.1309C98.8593 12.7079 74.132 0.251838 49.0496 5.2427ZM24.9798 39.1502C23.5107 41.5444 30.9129 48.5123 35.9304 49.4607C41.7825 50.5654 49.271 47.9334 52.6777 43.5758C56.7285 38.3947 53.7795 36.332 49.4911 41.3487C46.719 44.5921 45.092 45.2661 40.0379 45.2661C35.1756 45.2661 33.1219 44.4834 29.942 41.418C27.2186 38.7914 25.6428 38.0713 24.9798 39.1502ZM66.1628 40.4111C66.1628 43.8434 71.9905 48.3655 77.8344 49.4689C83.9862 50.6306 91.8933 47.5136 94.4561 42.9181C97.4848 37.4897 95.219 36.8918 89.791 41.6884C87.1242 44.0445 83.4569 45.9455 81.5774 45.9455C77.2835 45.9455 70.7874 42.6165 69.745 39.8812C68.6162 36.9231 66.1628 37.2872 66.1628 40.4111ZM50.2824 73.5767C40.8211 77.0294 30.1756 89.0846 33.5702 92.5006C34.5275 93.464 35.8913 92.3199 37.9329 88.84C42.594 80.8883 50.358 76.6068 60.0866 76.6204C69.984 76.6353 75.7402 79.4507 80.7375 86.723C82.7467 89.6485 85.1515 92.0645 86.0791 92.093C89.6533 92.2017 87.4982 87.3087 81.3438 81.3381C72.1728 72.4421 61.0237 69.6565 50.2824 73.5767Z" fill="black"/>
</svg>
