<svg width="120" height="120" viewBox="0 0 120 120" fill="none" xmlns="http://www.w3.org/2000/svg">
<path fill-rule="evenodd" clip-rule="evenodd" d="M42.9874 1.84231C25.4683 7.34869 12.6817 18.2598 4.99738 34.2628C0.127763 44.4024 0 45.059 0 60.0444C0 74.5859 0.23534 75.915 4.32361 84.4982C19.5201 116.397 55.8089 128.966 87.294 113.235C109.562 102.108 123.33 75.4658 119.302 51.2968C114.243 20.9462 89.1243 -0.377363 58.8792 0.00506199C53.1233 0.0772681 45.9715 0.904964 42.9874 1.84231ZM45.0517 5.70266C34.4248 8.57887 26.177 13.6226 18.1565 22.1469C7.02538 33.978 4.03718 41.9969 4.03583 60.0444C4.03449 73.0535 4.34916 74.7437 8.31774 83.0741C20.2329 108.083 47.2356 121.112 73.0119 114.29C83.6616 111.471 90.6117 107.444 99.0881 99.1814C129.889 69.1557 115.804 16.7783 74.0192 5.95939C64.5799 3.51508 53.4945 3.41747 45.0517 5.70266ZM31.7016 40.8363C30.1685 42.7738 28.9138 45.3999 28.9138 46.6729C28.9138 47.9459 30.1685 50.572 31.7016 52.5096C37.0782 59.3076 47.7413 55.4272 47.7413 46.6729C47.7413 37.9186 37.0782 34.0382 31.7016 40.8363ZM73.3912 40.8363C71.8581 42.7738 70.6034 45.3999 70.6034 46.6729C70.6034 47.9459 71.8581 50.572 73.3912 52.5096C78.7678 59.3076 89.4309 55.4272 89.4309 46.6729C89.4309 37.9186 78.7678 34.0382 73.3912 40.8363ZM47.0138 73.9066C39.0228 77.6065 31.9813 85.0357 34.3078 87.3142C35.416 88.4 36.5483 87.8023 38.5642 85.0692C41.7205 80.7889 49.0861 76.7133 55.9945 75.4243C63.3278 74.0564 71.8016 76.9674 77.7726 82.9043C83.3281 88.4267 85.3964 89.3307 85.3964 86.2325C85.3964 83.2573 74.0044 74.051 68.1732 72.3141C60.3235 69.9754 54.569 70.4087 47.0138 73.9066Z" fill="black"/>
</svg>
