<svg width="120" height="120" viewBox="0 0 120 120" fill="none" xmlns="http://www.w3.org/2000/svg">
<path fill-rule="evenodd" clip-rule="evenodd" d="M48.0155 1.07017C38.2546 2.98193 25.0009 10.3137 17.2407 18.0947C4.27428 31.0969 -2.33917 51.7583 0.753017 69.6014C6.0038 99.892 29.7699 120 60.3208 120C104.683 120 133.144 74.0568 113.872 33.558C102.582 9.83479 74.3571 -4.08875 48.0155 1.07017ZM47.0239 5.72984C24.1684 11.9021 8.46191 29.1662 4.76666 52.1804C-0.00383285 81.8865 21.3784 111.03 51.3883 115.726C88.7361 121.569 121.083 89.1249 115.246 51.6744C111.625 28.441 93.0249 9.35854 69.7553 5.00329C60.3505 3.24306 55.6731 3.39324 47.0239 5.72984ZM33.1751 40.1741C29.7295 43.6296 29.6067 51.1413 32.9444 54.1707C36.7908 57.6614 43.2855 57.0295 46.5679 52.8447C50.2402 48.1634 50.0985 44.8459 46.0525 40.7897C42.0416 36.7673 36.8218 36.5169 33.1751 40.1741ZM74.2627 40.7897C72.4414 42.6162 70.9506 45.636 70.9506 47.5018C70.9506 51.9139 75.8452 56.4098 80.6495 56.4098C89.2501 56.4098 93.0276 45.5927 86.2833 40.2728C81.6154 36.59 78.3074 36.7321 74.2627 40.7897ZM34.1033 82.9892C31.4226 85.6789 35.3999 86.1754 59.595 86.1754C80.1314 86.1754 85.8907 85.7993 85.455 84.4842C85.0394 83.2314 78.4409 82.6983 59.9634 82.4263C46.2509 82.2234 34.6133 82.4778 34.1033 82.9892Z" fill="black"/>
</svg>
