<svg width="120" height="120" viewBox="0 0 120 120" fill="none" xmlns="http://www.w3.org/2000/svg">
<path fill-rule="evenodd" clip-rule="evenodd" d="M46.0664 1.81128C27.9256 6.72868 13.8914 18.1482 5.85108 34.5314C1.64191 43.109 0.738843 46.5367 0.139462 56.2261C-1.48994 82.5188 11.2226 104.284 34.909 115.751C43.2355 119.783 44.5099 120 59.8832 120C75.2295 120 76.5444 119.777 84.8574 115.773C115.605 100.96 128.56 65.0062 114.073 34.685C101.817 9.02835 72.2178 -5.28075 46.0664 1.81128ZM48.8486 5.21322C32.4237 8.48197 16.4037 21.3789 8.86689 37.3992C4.84537 45.9469 4.5349 47.6295 4.5349 60.9056C4.5349 74.4468 4.7806 75.7081 9.16796 84.6798C31.7069 130.777 97.1623 126.407 113.251 77.7319C115.663 70.4319 116.117 66.5651 115.636 57.3528C115.123 47.5085 114.347 44.6013 109.852 35.6853C98.1653 12.5037 73.6757 0.270005 48.8486 5.21322ZM32.8233 41.1083C28.7748 45.183 28.633 48.5156 32.3076 53.2183C37.9167 60.3987 48.4436 56.5387 48.3883 47.3223C48.3626 43.1266 47.2718 41.3679 43.4353 39.3346C39.0195 36.9942 36.4884 37.4169 32.8233 41.1083ZM74.0577 40.4899C70.2752 44.2982 70.4358 51.9176 74.3588 54.6835C78.9608 57.9305 84.2391 57.3392 87.4588 53.2183C91.1334 48.5156 90.9916 45.183 86.9431 41.1083C82.9296 37.0676 77.7067 36.8161 74.0577 40.4899ZM34.909 76.2409C34.909 78.9483 43.0749 86.3067 48.7028 88.6703C59.2082 93.0821 72.0368 90.5052 80.47 82.2877C84.6171 78.247 86.1979 74.4686 83.7423 74.4686C83.1295 74.4686 81.1558 76.0574 79.355 77.9983C68.9374 89.2371 49.448 89.2561 40.6827 78.0377C37.6979 74.2158 34.909 73.3473 34.909 76.2409Z" fill="black"/>
</svg>
