<svg width="120" height="120" viewBox="0 0 120 120" fill="none" xmlns="http://www.w3.org/2000/svg">
<path fill-rule="evenodd" clip-rule="evenodd" d="M46.3721 1.71662C28.6232 6.01542 13.9589 17.8925 5.63601 34.7119C1.35612 43.3596 0.645486 46.2078 0.14197 56.7223C-0.533446 70.8448 1.08542 78.1352 7.5039 89.8731C15.2015 103.948 29.8305 115.241 44.848 118.701C53.2075 120.627 68.4618 120.377 76.7306 118.179C98.2708 112.453 115.39 93.0945 119.179 70.1824C124.313 39.1419 104.915 10.006 73.7136 1.88966C64.2442 -0.573358 56.0405 -0.626087 46.3721 1.71662ZM48.6257 5.33276C31.2639 8.71907 14.0374 23.0322 7.90995 39.1648C5.24077 46.1916 4.63573 50.2795 4.63573 61.301C4.63573 73.712 4.99169 75.5681 8.97921 83.9764C25.9702 119.802 72.6199 127.696 99.7394 99.3345C109.101 89.5432 113.222 81.6053 115.232 69.4903C120.136 39.9354 100.472 11.7147 70.5544 5.36926C62.4007 3.64027 57.3452 3.63216 48.6257 5.33276ZM30.1621 40.1625C24.9943 43.4069 23.7667 45.221 24.8427 48.0193C25.5263 49.7996 26.2017 49.5739 28.9074 46.658C30.6927 44.7344 33.7273 42.7661 35.652 42.2835C40.652 41.0304 45.6479 42.6201 49.3945 46.658C52.2586 49.7442 52.7432 49.8821 53.5296 47.8368C54.113 46.32 53.2278 44.3288 50.966 42.0713C46.2232 37.3345 36.1407 36.4098 30.1621 40.1625ZM73.6662 38.9337C69.6218 40.6045 64.4473 46.685 65.5518 48.4694C66.2109 49.5347 67.716 48.8858 70.2796 46.4336C72.5441 44.2666 76.1689 42.5498 79.389 42.1186C83.9938 41.5008 85.4109 41.9929 89.5838 45.6509C94.6339 50.0795 97.3071 49.3684 94.6 44.3166C91.7779 39.0513 80.4407 36.1354 73.6662 38.9337ZM30.2014 73.3727C29.0847 76.2791 33.5636 84.651 37.8746 87.7169C54.4852 99.5292 81.916 94.8627 88.5551 79.095C91.7603 71.4802 91.6074 71.4396 59.944 71.4396C36.046 71.4396 30.8145 71.7803 30.2014 73.3727ZM35.0904 77.3822C35.0904 80.3211 43.9344 87.3601 49.6044 88.9322C61.0052 92.0942 73.0029 89.9407 80.4704 83.3924C89.0221 75.8939 87.9948 75.4951 60.1308 75.4951C39.6003 75.4951 35.0904 75.8358 35.0904 77.3822Z" fill="black"/>
</svg>
